<svg xmlns="http://www.w3.org/2000/svg" viewBox="0 0 800 1000" width="800" height="1000" role="img">
<defs>
  <radialGradient id="vig" cx="42%" cy="34%" r="80%">
    <stop offset="0%" stop-color="#efeae0"/>
    <stop offset="70%" stop-color="#efeae0"/>
    <stop offset="100%" stop-color="#e2dbc8"/>
  </radialGradient>
  <filter id="grain">
    <feTurbulence type="fractalNoise" baseFrequency="0.9" numOctaves="2" seed="33" result="n"/>
    <feColorMatrix in="n" type="matrix" values="0 0 0 0 0  0 0 0 0 0  0 0 0 0 0  0 0 0 0.045 0"/>
    <feComposite operator="over" in2="SourceGraphic"/>
  </filter>
  <filter id="soft" x="-40%" y="-40%" width="180%" height="180%">
    <feDropShadow dx="0" dy="26" stdDeviation="26" flood-color="#2a2114" flood-opacity="0.20"/>
  </filter>
  <filter id="soft2" x="-40%" y="-40%" width="180%" height="180%">
    <feDropShadow dx="0" dy="10" stdDeviation="12" flood-color="#2a2114" flood-opacity="0.16"/>
  </filter>
</defs>
<rect width="800" height="1000" fill="url(#vig)"/><g opacity="0.5">
  <polygon points="0,0 400.0,0 224.00000000000003,1000 0,620.0" fill="#fffdf5" opacity="0.55"/>
</g><ellipse cx="400" cy="858" rx="240" ry="26" fill="#2a2114" opacity="0.12"/><g filter="url(#soft)"><rect x="160" y="140" width="480" height="740" rx="4" fill="#2b3648"/><rect x="160" y="140" width="480" height="740" rx="4" fill="#3a4a63" opacity="0.5"/><circle cx="385.20294312600856" cy="428.9196360928269" r="10" fill="none" stroke="#cdd6e6" stroke-width="3.0" opacity="0.5"/><circle cx="385.20294312600856" cy="428.9196360928269" r="20" fill="none" stroke="#cdd6e6" stroke-width="2.5" opacity="0.4"/><circle cx="385.20294312600856" cy="428.9196360928269" r="30" fill="none" stroke="#cdd6e6" stroke-width="2.0" opacity="0.3"/><circle cx="385.20294312600856" cy="428.9196360928269" r="40" fill="none" stroke="#cdd6e6" stroke-width="1.5" opacity="0.19999999999999996"/><circle cx="255.41576500578208" cy="744.5995839912584" r="10" fill="none" stroke="#cdd6e6" stroke-width="3.0" opacity="0.5"/><circle cx="255.41576500578208" cy="744.5995839912584" r="20" fill="none" stroke="#cdd6e6" stroke-width="2.5" opacity="0.4"/><circle cx="255.41576500578208" cy="744.5995839912584" r="30" fill="none" stroke="#cdd6e6" stroke-width="2.0" opacity="0.3"/><circle cx="255.41576500578208" cy="744.5995839912584" r="40" fill="none" stroke="#cdd6e6" stroke-width="1.5" opacity="0.19999999999999996"/><circle cx="202.57402163244933" cy="511.78053123341334" r="10" fill="none" stroke="#cdd6e6" stroke-width="3.0" opacity="0.5"/><circle cx="202.57402163244933" cy="511.78053123341334" r="20" fill="none" stroke="#cdd6e6" stroke-width="2.5" opacity="0.4"/><circle cx="202.57402163244933" cy="511.78053123341334" r="30" fill="none" stroke="#cdd6e6" stroke-width="2.0" opacity="0.3"/><circle cx="202.57402163244933" cy="511.78053123341334" r="40" fill="none" stroke="#cdd6e6" stroke-width="1.5" opacity="0.19999999999999996"/><circle cx="559.3191880127753" cy="241.72137419712067" r="10" fill="none" stroke="#cdd6e6" stroke-width="3.0" opacity="0.5"/><circle cx="559.3191880127753" cy="241.72137419712067" r="20" fill="none" stroke="#cdd6e6" stroke-width="2.5" opacity="0.4"/><circle cx="559.3191880127753" cy="241.72137419712067" r="30" fill="none" stroke="#cdd6e6" stroke-width="2.0" opacity="0.3"/><circle cx="559.3191880127753" cy="241.72137419712067" r="40" fill="none" stroke="#cdd6e6" stroke-width="1.5" opacity="0.19999999999999996"/><circle cx="421.7081872713144" cy="584.6560273175157" r="10" fill="none" stroke="#cdd6e6" stroke-width="3.0" opacity="0.5"/><circle cx="421.7081872713144" cy="584.6560273175157" r="20" fill="none" stroke="#cdd6e6" stroke-width="2.5" opacity="0.4"/><circle cx="421.7081872713144" cy="584.6560273175157" r="30" fill="none" stroke="#cdd6e6" stroke-width="2.0" opacity="0.3"/><circle cx="421.7081872713144" cy="584.6560273175157" r="40" fill="none" stroke="#cdd6e6" stroke-width="1.5" opacity="0.19999999999999996"/><circle cx="216.35830619392462" cy="432.5725468130788" r="10" fill="none" stroke="#cdd6e6" stroke-width="3.0" opacity="0.5"/><circle cx="216.35830619392462" cy="432.5725468130788" r="20" fill="none" stroke="#cdd6e6" stroke-width="2.5" opacity="0.4"/><circle cx="216.35830619392462" cy="432.5725468130788" r="30" fill="none" stroke="#cdd6e6" stroke-width="2.0" opacity="0.3"/><circle cx="216.35830619392462" cy="432.5725468130788" r="40" fill="none" stroke="#cdd6e6" stroke-width="1.5" opacity="0.19999999999999996"/><circle cx="481.3921569174988" cy="479.29338908801645" r="10" fill="none" stroke="#cdd6e6" stroke-width="3.0" opacity="0.5"/><circle cx="481.3921569174988" cy="479.29338908801645" r="20" fill="none" stroke="#cdd6e6" stroke-width="2.5" opacity="0.4"/><circle cx="481.3921569174988" cy="479.29338908801645" r="30" fill="none" stroke="#cdd6e6" stroke-width="2.0" opacity="0.3"/><circle cx="481.3921569174988" cy="479.29338908801645" r="40" fill="none" stroke="#cdd6e6" stroke-width="1.5" opacity="0.19999999999999996"/><circle cx="490.0261474328836" cy="290.5805834218405" r="10" fill="none" stroke="#cdd6e6" stroke-width="3.0" opacity="0.5"/><circle cx="490.0261474328836" cy="290.5805834218405" r="20" fill="none" stroke="#cdd6e6" stroke-width="2.5" opacity="0.4"/><circle cx="490.0261474328836" cy="290.5805834218405" r="30" fill="none" stroke="#cdd6e6" stroke-width="2.0" opacity="0.3"/><circle cx="490.0261474328836" cy="290.5805834218405" r="40" fill="none" stroke="#cdd6e6" stroke-width="1.5" opacity="0.19999999999999996"/><circle cx="295.2048809866131" cy="261.00641790592937" r="10" fill="none" stroke="#cdd6e6" stroke-width="3.0" opacity="0.5"/><circle cx="295.2048809866131" cy="261.00641790592937" r="20" fill="none" stroke="#cdd6e6" stroke-width="2.5" opacity="0.4"/><circle cx="295.2048809866131" cy="261.00641790592937" r="30" fill="none" stroke="#cdd6e6" stroke-width="2.0" opacity="0.3"/><circle cx="295.2048809866131" cy="261.00641790592937" r="40" fill="none" stroke="#cdd6e6" stroke-width="1.5" opacity="0.19999999999999996"/><circle cx="402.5076206675929" cy="781.2510633038692" r="10" fill="none" stroke="#cdd6e6" stroke-width="3.0" opacity="0.5"/><circle cx="402.5076206675929" cy="781.2510633038692" r="20" fill="none" stroke="#cdd6e6" stroke-width="2.5" opacity="0.4"/><circle cx="402.5076206675929" cy="781.2510633038692" r="30" fill="none" stroke="#cdd6e6" stroke-width="2.0" opacity="0.3"/><circle cx="402.5076206675929" cy="781.2510633038692" r="40" fill="none" stroke="#cdd6e6" stroke-width="1.5" opacity="0.19999999999999996"/><circle cx="436.171382854365" cy="685.4940590307272" r="10" fill="none" stroke="#cdd6e6" stroke-width="3.0" opacity="0.5"/><circle cx="436.171382854365" cy="685.4940590307272" r="20" fill="none" stroke="#cdd6e6" stroke-width="2.5" opacity="0.4"/><circle cx="436.171382854365" cy="685.4940590307272" r="30" fill="none" stroke="#cdd6e6" stroke-width="2.0" opacity="0.3"/><circle cx="436.171382854365" cy="685.4940590307272" r="40" fill="none" stroke="#cdd6e6" stroke-width="1.5" opacity="0.19999999999999996"/><circle cx="353.4659379410593" cy="667.5009388316344" r="10" fill="none" stroke="#cdd6e6" stroke-width="3.0" opacity="0.5"/><circle cx="353.4659379410593" cy="667.5009388316344" r="20" fill="none" stroke="#cdd6e6" stroke-width="2.5" opacity="0.4"/><circle cx="353.4659379410593" cy="667.5009388316344" r="30" fill="none" stroke="#cdd6e6" stroke-width="2.0" opacity="0.3"/><circle cx="353.4659379410593" cy="667.5009388316344" r="40" fill="none" stroke="#cdd6e6" stroke-width="1.5" opacity="0.19999999999999996"/><circle cx="240.6677750317914" cy="376.35397055130056" r="10" fill="none" stroke="#cdd6e6" stroke-width="3.0" opacity="0.5"/><circle cx="240.6677750317914" cy="376.35397055130056" r="20" fill="none" stroke="#cdd6e6" stroke-width="2.5" opacity="0.4"/><circle cx="240.6677750317914" cy="376.35397055130056" r="30" fill="none" stroke="#cdd6e6" stroke-width="2.0" opacity="0.3"/><circle cx="240.6677750317914" cy="376.35397055130056" r="40" fill="none" stroke="#cdd6e6" stroke-width="1.5" opacity="0.19999999999999996"/><circle cx="469.6944005021485" cy="654.4520654344351" r="10" fill="none" stroke="#cdd6e6" stroke-width="3.0" opacity="0.5"/><circle cx="469.6944005021485" cy="654.4520654344351" r="20" fill="none" stroke="#cdd6e6" stroke-width="2.5" opacity="0.4"/><circle cx="469.6944005021485" cy="654.4520654344351" r="30" fill="none" stroke="#cdd6e6" stroke-width="2.0" opacity="0.3"/><circle cx="469.6944005021485" cy="654.4520654344351" r="40" fill="none" stroke="#cdd6e6" stroke-width="1.5" opacity="0.19999999999999996"/><circle cx="368.70215800278197" cy="246.13592516222113" r="10" fill="none" stroke="#cdd6e6" stroke-width="3.0" opacity="0.5"/><circle cx="368.70215800278197" cy="246.13592516222113" r="20" fill="none" stroke="#cdd6e6" stroke-width="2.5" opacity="0.4"/><circle cx="368.70215800278197" cy="246.13592516222113" r="30" fill="none" stroke="#cdd6e6" stroke-width="2.0" opacity="0.3"/><circle cx="368.70215800278197" cy="246.13592516222113" r="40" fill="none" stroke="#cdd6e6" stroke-width="1.5" opacity="0.19999999999999996"/><circle cx="306.6934284906962" cy="324.3296832873483" r="10" fill="none" stroke="#cdd6e6" stroke-width="3.0" opacity="0.5"/><circle cx="306.6934284906962" cy="324.3296832873483" r="20" fill="none" stroke="#cdd6e6" stroke-width="2.5" opacity="0.4"/><circle cx="306.6934284906962" cy="324.3296832873483" r="30" fill="none" stroke="#cdd6e6" stroke-width="2.0" opacity="0.3"/><circle cx="306.6934284906962" cy="324.3296832873483" r="40" fill="none" stroke="#cdd6e6" stroke-width="1.5" opacity="0.19999999999999996"/><circle cx="312.47376603382753" cy="708.0868484649407" r="10" fill="none" stroke="#cdd6e6" stroke-width="3.0" opacity="0.5"/><circle cx="312.47376603382753" cy="708.0868484649407" r="20" fill="none" stroke="#cdd6e6" stroke-width="2.5" opacity="0.4"/><circle cx="312.47376603382753" cy="708.0868484649407" r="30" fill="none" stroke="#cdd6e6" stroke-width="2.0" opacity="0.3"/><circle cx="312.47376603382753" cy="708.0868484649407" r="40" fill="none" stroke="#cdd6e6" stroke-width="1.5" opacity="0.19999999999999996"/><circle cx="279.7932884359381" cy="757.2958278907375" r="10" fill="none" stroke="#cdd6e6" stroke-width="3.0" opacity="0.5"/><circle cx="279.7932884359381" cy="757.2958278907375" r="20" fill="none" stroke="#cdd6e6" stroke-width="2.5" opacity="0.4"/><circle cx="279.7932884359381" cy="757.2958278907375" r="30" fill="none" stroke="#cdd6e6" stroke-width="2.0" opacity="0.3"/><circle cx="279.7932884359381" cy="757.2958278907375" r="40" fill="none" stroke="#cdd6e6" stroke-width="1.5" opacity="0.19999999999999996"/><circle cx="551.7492753600707" cy="225.0651879110942" r="10" fill="none" stroke="#cdd6e6" stroke-width="3.0" opacity="0.5"/><circle cx="551.7492753600707" cy="225.0651879110942" r="20" fill="none" stroke="#cdd6e6" stroke-width="2.5" opacity="0.4"/><circle cx="551.7492753600707" cy="225.0651879110942" r="30" fill="none" stroke="#cdd6e6" stroke-width="2.0" opacity="0.3"/><circle cx="551.7492753600707" cy="225.0651879110942" r="40" fill="none" stroke="#cdd6e6" stroke-width="1.5" opacity="0.19999999999999996"/><circle cx="351.52656091990013" cy="504.69551152774244" r="10" fill="none" stroke="#cdd6e6" stroke-width="3.0" opacity="0.5"/><circle cx="351.52656091990013" cy="504.69551152774244" r="20" fill="none" stroke="#cdd6e6" stroke-width="2.5" opacity="0.4"/><circle cx="351.52656091990013" cy="504.69551152774244" r="30" fill="none" stroke="#cdd6e6" stroke-width="2.0" opacity="0.3"/><circle cx="351.52656091990013" cy="504.69551152774244" r="40" fill="none" stroke="#cdd6e6" stroke-width="1.5" opacity="0.19999999999999996"/><circle cx="209.3932635686794" cy="461.8242251216583" r="10" fill="none" stroke="#cdd6e6" stroke-width="3.0" opacity="0.5"/><circle cx="209.3932635686794" cy="461.8242251216583" r="20" fill="none" stroke="#cdd6e6" stroke-width="2.5" opacity="0.4"/><circle cx="209.3932635686794" cy="461.8242251216583" r="30" fill="none" stroke="#cdd6e6" stroke-width="2.0" opacity="0.3"/><circle cx="209.3932635686794" cy="461.8242251216583" r="40" fill="none" stroke="#cdd6e6" stroke-width="1.5" opacity="0.19999999999999996"/><circle cx="562.5642503819812" cy="261.7096136284473" r="10" fill="none" stroke="#cdd6e6" stroke-width="3.0" opacity="0.5"/><circle cx="562.5642503819812" cy="261.7096136284473" r="20" fill="none" stroke="#cdd6e6" stroke-width="2.5" opacity="0.4"/><circle cx="562.5642503819812" cy="261.7096136284473" r="30" fill="none" stroke="#cdd6e6" stroke-width="2.0" opacity="0.3"/><circle cx="562.5642503819812" cy="261.7096136284473" r="40" fill="none" stroke="#cdd6e6" stroke-width="1.5" opacity="0.19999999999999996"/><circle cx="438.73825670443364" cy="267.58876211339543" r="10" fill="none" stroke="#cdd6e6" stroke-width="3.0" opacity="0.5"/><circle cx="438.73825670443364" cy="267.58876211339543" r="20" fill="none" stroke="#cdd6e6" stroke-width="2.5" opacity="0.4"/><circle cx="438.73825670443364" cy="267.58876211339543" r="30" fill="none" stroke="#cdd6e6" stroke-width="2.0" opacity="0.3"/><circle cx="438.73825670443364" cy="267.58876211339543" r="40" fill="none" stroke="#cdd6e6" stroke-width="1.5" opacity="0.19999999999999996"/><circle cx="431.4801192214201" cy="762.9942076310939" r="10" fill="none" stroke="#cdd6e6" stroke-width="3.0" opacity="0.5"/><circle cx="431.4801192214201" cy="762.9942076310939" r="20" fill="none" stroke="#cdd6e6" stroke-width="2.5" opacity="0.4"/><circle cx="431.4801192214201" cy="762.9942076310939" r="30" fill="none" stroke="#cdd6e6" stroke-width="2.0" opacity="0.3"/><circle cx="431.4801192214201" cy="762.9942076310939" r="40" fill="none" stroke="#cdd6e6" stroke-width="1.5" opacity="0.19999999999999996"/><circle cx="281.2212775058052" cy="195.28163858640298" r="10" fill="none" stroke="#cdd6e6" stroke-width="3.0" opacity="0.5"/><circle cx="281.2212775058052" cy="195.28163858640298" r="20" fill="none" stroke="#cdd6e6" stroke-width="2.5" opacity="0.4"/><circle cx="281.2212775058052" cy="195.28163858640298" r="30" fill="none" stroke="#cdd6e6" stroke-width="2.0" opacity="0.3"/><circle cx="281.2212775058052" cy="195.28163858640298" r="40" fill="none" stroke="#cdd6e6" stroke-width="1.5" opacity="0.19999999999999996"/><circle cx="233.40143899078186" cy="535.4524417765497" r="10" fill="none" stroke="#cdd6e6" stroke-width="3.0" opacity="0.5"/><circle cx="233.40143899078186" cy="535.4524417765497" r="20" fill="none" stroke="#cdd6e6" stroke-width="2.5" opacity="0.4"/><circle cx="233.40143899078186" cy="535.4524417765497" r="30" fill="none" stroke="#cdd6e6" stroke-width="2.0" opacity="0.3"/><circle cx="233.40143899078186" cy="535.4524417765497" r="40" fill="none" stroke="#cdd6e6" stroke-width="1.5" opacity="0.19999999999999996"/><path d="M160 170 L640 110 L640 140 L160 200 Z" fill="#e8ecf4" opacity="0.10"/><path d="M160 270 L640 210 L640 240 L160 300 Z" fill="#e8ecf4" opacity="0.10"/><path d="M160 370 L640 310 L640 340 L160 400 Z" fill="#e8ecf4" opacity="0.10"/><path d="M160 470 L640 410 L640 440 L160 500 Z" fill="#e8ecf4" opacity="0.10"/><path d="M160 570 L640 510 L640 540 L160 600 Z" fill="#e8ecf4" opacity="0.10"/><path d="M160 670 L640 610 L640 640 L160 700 Z" fill="#e8ecf4" opacity="0.10"/><path d="M160 770 L640 710 L640 740 L160 800 Z" fill="#e8ecf4" opacity="0.10"/></g><rect width="100%" height="100%" fill="transparent" filter="url(#grain)"/></svg>
