<svg xmlns="http://www.w3.org/2000/svg" viewBox="0 0 800 1000" width="800" height="1000" role="img">
<defs>
  <radialGradient id="vig" cx="42%" cy="34%" r="80%">
    <stop offset="0%" stop-color="#efeae0"/>
    <stop offset="70%" stop-color="#efeae0"/>
    <stop offset="100%" stop-color="#e2dbc8"/>
  </radialGradient>
  <filter id="grain">
    <feTurbulence type="fractalNoise" baseFrequency="0.9" numOctaves="2" seed="11" result="n"/>
    <feColorMatrix in="n" type="matrix" values="0 0 0 0 0  0 0 0 0 0  0 0 0 0 0  0 0 0 0.045 0"/>
    <feComposite operator="over" in2="SourceGraphic"/>
  </filter>
  <filter id="soft" x="-40%" y="-40%" width="180%" height="180%">
    <feDropShadow dx="0" dy="26" stdDeviation="26" flood-color="#2a2114" flood-opacity="0.20"/>
  </filter>
  <filter id="soft2" x="-40%" y="-40%" width="180%" height="180%">
    <feDropShadow dx="0" dy="10" stdDeviation="12" flood-color="#2a2114" flood-opacity="0.16"/>
  </filter>
</defs>
<rect width="800" height="1000" fill="url(#vig)"/><g opacity="0.5">
  <polygon points="0,0 400.0,0 224.00000000000003,1000 0,620.0" fill="#fffdf5" opacity="0.55"/>
</g><ellipse cx="400" cy="852" rx="250" ry="30" fill="#2a2114" opacity="0.12"/><g filter="url(#soft)"><rect x="150" y="150" width="500" height="720" rx="6" fill="#d9cdb0"/><rect x="150" y="168" width="500" height="20" fill="#5e6b57" opacity="0.92"/><rect x="160" y="170" width="22" height="16" fill="#3a4a63" opacity="0.5"/><rect x="208" y="170" width="22" height="16" fill="#3a4a63" opacity="0.5"/><rect x="256" y="170" width="22" height="16" fill="#c2a878" opacity="0.5"/><rect x="304" y="170" width="22" height="16" fill="#9a583a" opacity="0.5"/><rect x="352" y="170" width="22" height="16" fill="#9a583a" opacity="0.5"/><rect x="400" y="170" width="22" height="16" fill="#9a583a" opacity="0.5"/><rect x="448" y="170" width="22" height="16" fill="#3a4a63" opacity="0.5"/><rect x="496" y="170" width="22" height="16" fill="#7c6a53" opacity="0.5"/><rect x="544" y="170" width="22" height="16" fill="#5e6b57" opacity="0.5"/><rect x="592" y="170" width="22" height="16" fill="#9a583a" opacity="0.5"/><rect x="150" y="188" width="500" height="20" fill="#7c6a53" opacity="0.92"/><rect x="150" y="208" width="500" height="26" fill="#c2a878" opacity="0.92"/><rect x="150" y="234" width="500" height="26" fill="#c2a878" opacity="0.92"/><rect x="150" y="260" width="500" height="14" fill="#e8e0cd" opacity="0.92"/><rect x="150" y="274" width="500" height="26" fill="#c2a878" opacity="0.92"/><rect x="160" y="276" width="22" height="22" fill="#5e6b57" opacity="0.5"/><rect x="208" y="276" width="22" height="22" fill="#e8e0cd" opacity="0.5"/><rect x="256" y="276" width="22" height="22" fill="#e8e0cd" opacity="0.5"/><rect x="304" y="276" width="22" height="22" fill="#5e6b57" opacity="0.5"/><rect x="352" y="276" width="22" height="22" fill="#9a583a" opacity="0.5"/><rect x="400" y="276" width="22" height="22" fill="#7c6a53" opacity="0.5"/><rect x="448" y="276" width="22" height="22" fill="#5e6b57" opacity="0.5"/><rect x="496" y="276" width="22" height="22" fill="#e8e0cd" opacity="0.5"/><rect x="544" y="276" width="22" height="22" fill="#3a4a63" opacity="0.5"/><rect x="592" y="276" width="22" height="22" fill="#7c6a53" opacity="0.5"/><rect x="150" y="300" width="500" height="20" fill="#c2a878" opacity="0.92"/><rect x="160" y="302" width="22" height="16" fill="#5e6b57" opacity="0.5"/><rect x="208" y="302" width="22" height="16" fill="#9a583a" opacity="0.5"/><rect x="256" y="302" width="22" height="16" fill="#7c6a53" opacity="0.5"/><rect x="304" y="302" width="22" height="16" fill="#5e6b57" opacity="0.5"/><rect x="352" y="302" width="22" height="16" fill="#9a583a" opacity="0.5"/><rect x="400" y="302" width="22" height="16" fill="#5e6b57" opacity="0.5"/><rect x="448" y="302" width="22" height="16" fill="#7c6a53" opacity="0.5"/><rect x="496" y="302" width="22" height="16" fill="#e8e0cd" opacity="0.5"/><rect x="544" y="302" width="22" height="16" fill="#5e6b57" opacity="0.5"/><rect x="592" y="302" width="22" height="16" fill="#7c6a53" opacity="0.5"/><rect x="150" y="320" width="500" height="20" fill="#3a4a63" opacity="0.92"/><rect x="150" y="340" width="500" height="26" fill="#3a4a63" opacity="0.92"/><rect x="150" y="366" width="500" height="20" fill="#5e6b57" opacity="0.92"/><rect x="160" y="368" width="22" height="16" fill="#9a583a" opacity="0.5"/><rect x="208" y="368" width="22" height="16" fill="#9a583a" opacity="0.5"/><rect x="256" y="368" width="22" height="16" fill="#9a583a" opacity="0.5"/><rect x="304" y="368" width="22" height="16" fill="#3a4a63" opacity="0.5"/><rect x="352" y="368" width="22" height="16" fill="#e8e0cd" opacity="0.5"/><rect x="400" y="368" width="22" height="16" fill="#5e6b57" opacity="0.5"/><rect x="448" y="368" width="22" height="16" fill="#7c6a53" opacity="0.5"/><rect x="496" y="368" width="22" height="16" fill="#7c6a53" opacity="0.5"/><rect x="544" y="368" width="22" height="16" fill="#e8e0cd" opacity="0.5"/><rect x="592" y="368" width="22" height="16" fill="#3a4a63" opacity="0.5"/><rect x="150" y="386" width="500" height="26" fill="#c2a878" opacity="0.92"/><rect x="150" y="412" width="500" height="20" fill="#9a583a" opacity="0.92"/><rect x="150" y="432" width="500" height="20" fill="#e8e0cd" opacity="0.92"/><rect x="150" y="452" width="500" height="26" fill="#c2a878" opacity="0.92"/><rect x="160" y="454" width="22" height="22" fill="#e8e0cd" opacity="0.5"/><rect x="208" y="454" width="22" height="22" fill="#7c6a53" opacity="0.5"/><rect x="256" y="454" width="22" height="22" fill="#5e6b57" opacity="0.5"/><rect x="304" y="454" width="22" height="22" fill="#e8e0cd" opacity="0.5"/><rect x="352" y="454" width="22" height="22" fill="#7c6a53" opacity="0.5"/><rect x="400" y="454" width="22" height="22" fill="#c2a878" opacity="0.5"/><rect x="448" y="454" width="22" height="22" fill="#5e6b57" opacity="0.5"/><rect x="496" y="454" width="22" height="22" fill="#9a583a" opacity="0.5"/><rect x="544" y="454" width="22" height="22" fill="#9a583a" opacity="0.5"/><rect x="592" y="454" width="22" height="22" fill="#e8e0cd" opacity="0.5"/><rect x="150" y="478" width="500" height="20" fill="#5e6b57" opacity="0.92"/><rect x="150" y="498" width="500" height="44" fill="#c2a878" opacity="0.92"/><rect x="160" y="500" width="22" height="40" fill="#c2a878" opacity="0.5"/><rect x="208" y="500" width="22" height="40" fill="#5e6b57" opacity="0.5"/><rect x="256" y="500" width="22" height="40" fill="#3a4a63" opacity="0.5"/><rect x="304" y="500" width="22" height="40" fill="#9a583a" opacity="0.5"/><rect x="352" y="500" width="22" height="40" fill="#9a583a" opacity="0.5"/><rect x="400" y="500" width="22" height="40" fill="#5e6b57" opacity="0.5"/><rect x="448" y="500" width="22" height="40" fill="#e8e0cd" opacity="0.5"/><rect x="496" y="500" width="22" height="40" fill="#9a583a" opacity="0.5"/><rect x="544" y="500" width="22" height="40" fill="#5e6b57" opacity="0.5"/><rect x="592" y="500" width="22" height="40" fill="#e8e0cd" opacity="0.5"/><rect x="150" y="542" width="500" height="26" fill="#9a583a" opacity="0.92"/><rect x="160" y="544" width="22" height="22" fill="#5e6b57" opacity="0.5"/><rect x="208" y="544" width="22" height="22" fill="#c2a878" opacity="0.5"/><rect x="256" y="544" width="22" height="22" fill="#e8e0cd" opacity="0.5"/><rect x="304" y="544" width="22" height="22" fill="#3a4a63" opacity="0.5"/><rect x="352" y="544" width="22" height="22" fill="#7c6a53" opacity="0.5"/><rect x="400" y="544" width="22" height="22" fill="#e8e0cd" opacity="0.5"/><rect x="448" y="544" width="22" height="22" fill="#9a583a" opacity="0.5"/><rect x="496" y="544" width="22" height="22" fill="#5e6b57" opacity="0.5"/><rect x="544" y="544" width="22" height="22" fill="#7c6a53" opacity="0.5"/><rect x="592" y="544" width="22" height="22" fill="#c2a878" opacity="0.5"/><rect x="150" y="568" width="500" height="34" fill="#5e6b57" opacity="0.92"/><rect x="160" y="570" width="22" height="30" fill="#3a4a63" opacity="0.5"/><rect x="208" y="570" width="22" height="30" fill="#7c6a53" opacity="0.5"/><rect x="256" y="570" width="22" height="30" fill="#c2a878" opacity="0.5"/><rect x="304" y="570" width="22" height="30" fill="#5e6b57" opacity="0.5"/><rect x="352" y="570" width="22" height="30" fill="#7c6a53" opacity="0.5"/><rect x="400" y="570" width="22" height="30" fill="#9a583a" opacity="0.5"/><rect x="448" y="570" width="22" height="30" fill="#5e6b57" opacity="0.5"/><rect x="496" y="570" width="22" height="30" fill="#9a583a" opacity="0.5"/><rect x="544" y="570" width="22" height="30" fill="#3a4a63" opacity="0.5"/><rect x="592" y="570" width="22" height="30" fill="#c2a878" opacity="0.5"/><rect x="150" y="602" width="500" height="26" fill="#5e6b57" opacity="0.92"/><rect x="150" y="628" width="500" height="44" fill="#9a583a" opacity="0.92"/><rect x="150" y="672" width="500" height="20" fill="#3a4a63" opacity="0.92"/><rect x="150" y="692" width="500" height="14" fill="#9a583a" opacity="0.92"/><rect x="160" y="694" width="22" height="10" fill="#e8e0cd" opacity="0.5"/><rect x="208" y="694" width="22" height="10" fill="#c2a878" opacity="0.5"/><rect x="256" y="694" width="22" height="10" fill="#7c6a53" opacity="0.5"/><rect x="304" y="694" width="22" height="10" fill="#e8e0cd" opacity="0.5"/><rect x="352" y="694" width="22" height="10" fill="#c2a878" opacity="0.5"/><rect x="400" y="694" width="22" height="10" fill="#7c6a53" opacity="0.5"/><rect x="448" y="694" width="22" height="10" fill="#9a583a" opacity="0.5"/><rect x="496" y="694" width="22" height="10" fill="#7c6a53" opacity="0.5"/><rect x="544" y="694" width="22" height="10" fill="#3a4a63" opacity="0.5"/><rect x="592" y="694" width="22" height="10" fill="#7c6a53" opacity="0.5"/><rect x="150" y="706" width="500" height="20" fill="#5e6b57" opacity="0.92"/><rect x="150" y="726" width="500" height="14" fill="#7c6a53" opacity="0.92"/><rect x="160" y="728" width="22" height="10" fill="#3a4a63" opacity="0.5"/><rect x="208" y="728" width="22" height="10" fill="#e8e0cd" opacity="0.5"/><rect x="256" y="728" width="22" height="10" fill="#c2a878" opacity="0.5"/><rect x="304" y="728" width="22" height="10" fill="#3a4a63" opacity="0.5"/><rect x="352" y="728" width="22" height="10" fill="#c2a878" opacity="0.5"/><rect x="400" y="728" width="22" height="10" fill="#c2a878" opacity="0.5"/><rect x="448" y="728" width="22" height="10" fill="#3a4a63" opacity="0.5"/><rect x="496" y="728" width="22" height="10" fill="#3a4a63" opacity="0.5"/><rect x="544" y="728" width="22" height="10" fill="#3a4a63" opacity="0.5"/><rect x="592" y="728" width="22" height="10" fill="#9a583a" opacity="0.5"/><rect x="150" y="740" width="500" height="20" fill="#3a4a63" opacity="0.92"/><rect x="150" y="760" width="500" height="34" fill="#c2a878" opacity="0.92"/><rect x="150" y="794" width="500" height="14" fill="#9a583a" opacity="0.92"/><rect x="160" y="796" width="22" height="10" fill="#c2a878" opacity="0.5"/><rect x="208" y="796" width="22" height="10" fill="#7c6a53" opacity="0.5"/><rect x="256" y="796" width="22" height="10" fill="#c2a878" opacity="0.5"/><rect x="304" y="796" width="22" height="10" fill="#c2a878" opacity="0.5"/><rect x="352" y="796" width="22" height="10" fill="#3a4a63" opacity="0.5"/><rect x="400" y="796" width="22" height="10" fill="#5e6b57" opacity="0.5"/><rect x="448" y="796" width="22" height="10" fill="#c2a878" opacity="0.5"/><rect x="496" y="796" width="22" height="10" fill="#5e6b57" opacity="0.5"/><rect x="544" y="796" width="22" height="10" fill="#9a583a" opacity="0.5"/><rect x="592" y="796" width="22" height="10" fill="#5e6b57" opacity="0.5"/><rect x="150" y="808" width="500" height="44" fill="#9a583a" opacity="0.92"/></g><g stroke="#c2a878" stroke-width="3" opacity="0.5"><line x1="158" y1="150" x2="158" y2="870"/><line x1="177" y1="150" x2="177" y2="870"/><line x1="196" y1="150" x2="196" y2="870"/><line x1="215" y1="150" x2="215" y2="870"/><line x1="234" y1="150" x2="234" y2="870"/><line x1="253" y1="150" x2="253" y2="870"/><line x1="272" y1="150" x2="272" y2="870"/><line x1="291" y1="150" x2="291" y2="870"/><line x1="310" y1="150" x2="310" y2="870"/><line x1="329" y1="150" x2="329" y2="870"/><line x1="348" y1="150" x2="348" y2="870"/><line x1="367" y1="150" x2="367" y2="870"/><line x1="386" y1="150" x2="386" y2="870"/><line x1="405" y1="150" x2="405" y2="870"/><line x1="424" y1="150" x2="424" y2="870"/><line x1="443" y1="150" x2="443" y2="870"/><line x1="462" y1="150" x2="462" y2="870"/><line x1="481" y1="150" x2="481" y2="870"/><line x1="500" y1="150" x2="500" y2="870"/><line x1="519" y1="150" x2="519" y2="870"/><line x1="538" y1="150" x2="538" y2="870"/><line x1="557" y1="150" x2="557" y2="870"/><line x1="576" y1="150" x2="576" y2="870"/><line x1="595" y1="150" x2="595" y2="870"/><line x1="614" y1="150" x2="614" y2="870"/><line x1="633" y1="150" x2="633" y2="870"/></g><g stroke="#8d7a5c" stroke-width="3" opacity="0.8"><line x1="156.0" y1="870" x2="155.02962065955663" y2="910"/><line x1="172.5" y1="870" x2="176.50952157772835" y2="910"/><line x1="189.0" y1="870" x2="190.53973466686145" y2="910"/><line x1="205.5" y1="870" x2="208.4085772273952" y2="910"/><line x1="222.0" y1="870" x2="224.44726285640175" y2="910"/><line x1="238.5" y1="870" x2="238.44288022722844" y2="910"/><line x1="255.0" y1="870" x2="250.9290861658832" y2="910"/><line x1="271.5" y1="870" x2="268.60921294465123" y2="910"/><line x1="288.0" y1="870" x2="291.7380622753728" y2="910"/><line x1="304.5" y1="870" x2="308.4976185518607" y2="910"/><line x1="321.0" y1="870" x2="325.2457737151873" y2="910"/><line x1="337.5" y1="870" x2="335.8658958447132" y2="910"/><line x1="354.0" y1="870" x2="355.56908999914145" y2="910"/><line x1="370.5" y1="870" x2="373.4950465933008" y2="910"/><line x1="387.0" y1="870" x2="388.424939208853" y2="910"/><line x1="403.5" y1="870" x2="406.6482617124907" y2="910"/><line x1="420.0" y1="870" x2="420.280238927546" y2="910"/><line x1="436.5" y1="870" x2="438.0473218859283" y2="910"/><line x1="453.0" y1="870" x2="454.8595985175002" y2="910"/><line x1="469.5" y1="870" x2="467.1829904570081" y2="910"/><line x1="486.0" y1="870" x2="490.2279996270077" y2="910"/><line x1="502.5" y1="870" x2="507.06279057982493" y2="910"/><line x1="519.0" y1="870" x2="514.7438056810654" y2="910"/><line x1="535.5" y1="870" x2="540.2108827740014" y2="910"/><line x1="552.0" y1="870" x2="556.6177381744877" y2="910"/><line x1="568.5" y1="870" x2="570.1835188263102" y2="910"/><line x1="585.0" y1="870" x2="580.4454396959245" y2="910"/><line x1="601.5" y1="870" x2="605.4896972193976" y2="910"/><line x1="618.0" y1="870" x2="614.2763278757647" y2="910"/><line x1="634.5" y1="870" x2="639.185349633503" y2="910"/></g><rect width="100%" height="100%" fill="transparent" filter="url(#grain)"/></svg>
